<svg xmlns="http://www.w3.org/2000/svg" viewBox="0 0 45 45" width="45" height="45">
    <g transform="translate(5.6, 7.5) scale(0.75)">
        <path d="M 40.3 25.4 c -4.9 2.6 -5.3 -2.1 -5.3 -2.1 c -4 -0.5 -7 -5 -7 -5 c -5.4 2.8 -2.4 10.7 -0.1 13.8 c 0.2 0.3 0.4 0.6 0.6 0.9 h 5.1 v 5.4 h 5.1 v 6.6 H 3.5 v -6.6 h 5.1 v -5.4 h 1.2 c -4.3 -5.7 -3.1 -11.1 -1.8 -14.7 c 1.6 -4.4 3.8 -6.8 7 -9.4 c 4.7 -3.8 13.4 -4.3 13.4 -4.3 c 0.1 -0.3 0.3 -0.7 0.6 -1.1 c -1 -0.0 -2.3 0.1 -3.8 0.3 c -1 0.2 -2.1 0.3 -3.2 0.6 c -1.1 0.2 -2.3 0.6 -3.5 1.1 c -1.2 0.4 -2.3 1.1 -3.5 1.7 c -1.1 0.8 -2.2 1.5 -3.2 2.4 c -1 0.9 -1.8 2 -2.6 3 c -0.8 1 -1.2 2.3 -1.8 3.4 c -0.5 1.2 -0.7 2.4 -1.1 3.5 c -0.3 1.1 -0.3 2.2 -0.5 3.2 c -0.1 1 -0.2 1.9 -0.2 2.8 c 0 0.8 0 1.5 0.1 2.1 c 0 1.2 0.1 1.9 0.1 1.9 l -0.2 0.0 c 0 0 -0.1 -0.7 -0.3 -1.9 c -0.1 -0.6 -0.2 -1.3 -0.3 -2.2 c -0.2 -0.8 -0.2 -1.8 -0.1 -2.8 c 0.1 -1 -0.0 -2.2 0.2 -3.4 c 0.3 -1.2 0.4 -2.5 0.9 -3.7 c 0.6 -1.2 1 -2.6 1.9 -3.7 c 0.8 -1.2 1.6 -2.4 2.7 -3.4 c 1 -1.1 2.3 -1.8 3.5 -2.6 c 1.2 -0.7 2.5 -1.3 3.8 -1.7 c 1.2 -0.5 2.5 -0.8 3.7 -0.9 c 1.2 -0.3 2.3 -0.3 3.4 -0.4 c 1.8 -0.1 3.2 0.0 4.4 0.1 c 0.3 -1.5 2.6 -2.9 2.6 -2.9 c -0.5 0.5 -0.7 3 -0.7 3 c 0.5 -0.8 2 -1.7 2 -1.7 c -0.8 2 0 6.2 0 6.2 c 2.4 2.4 5.1 10.8 5.1 10.8 l 1 1.5 C 42.1 21.7 41.6 24.7 40.3 25.4 Z" fill="#000000" stroke="none"/>

        <path d="M 40.3 25.4 c -4.9 2.6 -5.3 -2.1 -5.3 -2.1 c -4 -0.5 -7 -5 -7 -5 c -5.4 2.8 -2.4 10.7 -0.1 13.8 c 0.2 0.3 0.4 0.6 0.6 0.9 h 5.1 v 5.4 h 5.1 v 6.6 H 3.5 v -6.6 h 5.1 v -5.4 h 1.2 c -4.3 -5.7 -3.1 -11.1 -1.8 -14.7 c 1.6 -4.4 3.8 -6.8 7 -9.4 c 4.7 -3.8 13.4 -4.3 13.4 -4.3 c 0.1 -0.3 0.3 -0.7 0.6 -1.1 c -1 -0.0 -2.3 0.1 -3.8 0.3 c -1 0.2 -2.1 0.3 -3.2 0.6 c -1.1 0.2 -2.3 0.6 -3.5 1.1 c -1.2 0.4 -2.3 1.1 -3.5 1.7 c -1.1 0.8 -2.2 1.5 -3.2 2.4 c -1 0.9 -1.8 2 -2.6 3 c -0.8 1 -1.2 2.3 -1.8 3.4 c -0.5 1.2 -0.7 2.4 -1.1 3.5 c -0.3 1.1 -0.3 2.2 -0.5 3.2 c -0.1 1 -0.2 1.9 -0.2 2.8 c 0 0.8 0 1.5 0.1 2.1 c 0 1.2 0.1 1.9 0.1 1.9 l -0.2 0.0 c 0 0 -0.1 -0.7 -0.3 -1.9 c -0.1 -0.6 -0.2 -1.3 -0.3 -2.2 c -0.2 -0.8 -0.2 -1.8 -0.1 -2.8 c 0.1 -1 -0.0 -2.2 0.2 -3.4 c 0.3 -1.2 0.4 -2.5 0.9 -3.7 c 0.6 -1.2 1 -2.6 1.9 -3.7 c 0.8 -1.2 1.6 -2.4 2.7 -3.4 c 1 -1.1 2.3 -1.8 3.5 -2.6 c 1.2 -0.7 2.5 -1.3 3.8 -1.7 c 1.2 -0.5 2.5 -0.8 3.7 -0.9 c 1.2 -0.3 2.3 -0.3 3.4 -0.4 c 1.8 -0.1 3.2 0.0 4.4 0.1 c 0.3 -1.5 2.6 -2.9 2.6 -2.9 c -0.5 0.5 -0.7 3 -0.7 3 c 0.5 -0.8 2 -1.7 2 -1.7 c -0.8 2 0 6.2 0 6.2 c 2.4 2.4 5.1 10.8 5.1 10.8 l 1 1.5 C 42.1 21.7 41.6 24.7 40.3 25.4 Z" fill="none" stroke="#ffffff" stroke-width="2" stroke-linejoin="round"/>
    </g>
</svg>