<svg xmlns="http://www.w3.org/2000/svg" viewBox="0 0 45 45" width="45" height="45"><g fill="#fff" stroke="#000" stroke-width="1.5" stroke-linecap="round" stroke-linejoin="round"><path d="M22.5 11.63V6M20 8h5" fill="none" stroke-linejoin="miter"/><path d="M22.5 25s4.5-7.5 3-10c-1.5-2.5-6-2.5-6 0-1.5 2.5 3 10 3 10" fill="#fff" stroke-linecap="butt"/><path d="M11.5 37c5.5 3.5 15.5 3.5 21 0v-7s9-4.5 6-10.5c-4-1-1-1-4-1s-7 7-11 7-8-7-11-7c-3 0 0 0-4 1-3 6 6 10.5 6 10.5v7z" fill="#fff"/><path d="M11.5 30c5.5-3 15.5-3 21 0m-21 3.5c5.5-3 15.5-3 21 0m-21 3.5c5.5-3 15.5-3 21 0" fill="none" stroke-linecap="butt"/></g></svg>
