<svg xmlns="http://www.w3.org/2000/svg" viewBox="0 0 45 45" width="45" height="45">
    <g fill="#fff" stroke="#000" stroke-width="1.5" stroke-linecap="round" stroke-linejoin="round">
        <path d="M 8,12 A 2,2 0 1,1 4,12 A 2,2 0 1,1 8,12 Z" transform="translate(-1,-1)" />
        <path d="M 24.5,7.5 A 2,2 0 1,1 20.5,7.5 A 2,2 0 1,1 24.5,7.5 Z" transform="translate(0,-0.5)" />
        <path d="M 41,12 A 2,2 0 1,1 37,12 A 2,2 0 1,1 41,12 Z" transform="translate(1,-1)" />
        <path d="M 16,8.5 A 2,2 0 1,1 12,8.5 A 2,2 0 1,1 16,8.5 Z" transform="translate(-0.5,-1)" />
        <path d="M 33,8.5 A 2,2 0 1,1 29,8.5 A 2,2 0 1,1 33,8.5 Z" transform="translate(0.5,-1)" />
        <path d="M 9,26 C 17.5,24.5 30,24.5 36,26 L 38.5,13.5 L 31,25 L 30.7,10.9 L 25.5,24.5 L 22.5,10 L 19.5,24.5 L 14.3,10.9 L 14,25 L 6.5,13.5 L 9,26 Z" stroke-linecap="butt" />
        <path d="M 9,26 C 9,28 10.5,28 11.5,30 C 12.5,31.5 12.5,31 12,33.5 C 10.5,34.5 10.5,36 10.5,36 C 9,37.5 11,38.5 11,38.5 C 17.5,39.5 27.5,39.5 34,38.5 C 34,38.5 36,37.5 34.5,36 C 34.5,36 34.5,34.5 33,33.5 C 32.5,31 32.5,31.5 33.5,30 C 34.5,28 36,28 36,26 C 27.5,24.5 17.5,24.5 9,26 Z" stroke-linecap="butt" />
        <path d="M 11.5,30 C 15,29 30,29 33.5,30" fill="none" stroke-width="1" />
        <path d="M 12,33.5 C 18,32.5 27,32.5 33,33.5" fill="none" stroke-width="1" />
    </g>
</svg>